<svg xmlns="http://www.w3.org/2000/svg" width="80" height="15" version="1.0"><defs><clipPath clipPathUnits="userSpaceOnUse" id="a"><path stroke-width=".92" d="M172 239.12h20.61v12.48H172z"/></clipPath></defs><path fill="#fff" stroke="#000" stroke-width="1.04" d="M170.5 237.86h80v15h-80z" transform="matrix(.9875 0 0 .93335 -167.88 -221.48)"/><path d="M1.97 1.93h76.04v11.2H1.97z"/><path d="M1.97 1.95v11.2h20.09a9.08 9.08 0 0 0 2.16-5.6c0-2.06-.86-3.98-2.13-5.6H1.97z" fill="#abb1aa"/><g clip-path="url(#a)" transform="matrix(.94924 0 0 .89719 -161.13 -212.6)"><path d="M190.06 245.36a7.05 7.05 0 0 1-14.09.01 7.05 7.05 0 1 1 14.1-.02v.01z" fill="#fff"/><path d="M188.75 239.62a7.8 7.8 0 0 1 2.34 5.74c0 2.27-.77 4.16-2.3 5.68a7.97 7.97 0 0 1-5.78 2.4c-2.2 0-4.1-.79-5.68-2.38a7.78 7.78 0 0 1-2.39-5.7c0-2.2.8-4.12 2.39-5.74a7.69 7.69 0 0 1 5.68-2.34 7.8 7.8 0 0 1 5.74 2.34zm-10.37 1.05a6.45 6.45 0 0 0-1.98 4.7c0 1.79.65 3.34 1.96 4.64a6.38 6.38 0 0 0 4.67 1.97c1.8 0 3.38-.66 4.71-1.99a6.17 6.17 0 0 0 1.9-4.63 6.4 6.4 0 0 0-1.93-4.7 6.37 6.37 0 0 0-4.68-1.93c-1.83 0-3.38.65-4.65 1.94zm3.48 3.9c-.2-.43-.5-.65-.9-.65-.72 0-1.08.48-1.08 1.43 0 .96.36 1.44 1.07 1.44.47 0 .8-.23 1-.7l1 .53a2.29 2.29 0 0 1-2.12 1.25c-.73 0-1.31-.22-1.75-.67a2.51 2.51 0 0 1-.65-1.84c0-.77.22-1.38.67-1.83a2.28 2.28 0 0 1 1.69-.68c1 0 1.7.4 2.14 1.18l-1.07.55zm4.64 0c-.2-.43-.5-.65-.88-.65-.73 0-1.1.48-1.1 1.43 0 .96.37 1.44 1.1 1.44.47 0 .8-.23.98-.7l1.01.53a2.28 2.28 0 0 1-2.11 1.25 2.3 2.3 0 0 1-1.74-.67 2.52 2.52 0 0 1-.66-1.84c0-.77.22-1.38.67-1.83.44-.45 1-.68 1.69-.68 1 0 1.7.4 2.13 1.18l-1.09.55z"/></g><path d="M29.05 6.9c.24 0 .43-.05.55-.15.13-.1.2-.25.2-.44 0-.2-.07-.34-.2-.44-.12-.1-.3-.15-.55-.15h-.85V6.9h.85m.05 2.45c.31 0 .54-.06.7-.18.16-.13.23-.31.23-.56 0-.24-.07-.42-.23-.54-.15-.12-.38-.19-.7-.19h-.9v1.47h.9m1.43-2.01a1.34 1.34 0 0 1 1.04 1.39c0 .54-.2.94-.58 1.2-.39.27-.98.4-1.77.4h-2.56v-5.6h2.31c.83 0 1.43.12 1.8.36.37.23.56.6.56 1.12 0 .28-.07.51-.2.7a1.2 1.2 0 0 1-.6.43m.91-2.6h1.68l1.36 1.99 1.36-2h1.69l-2.28 3.24v2.36h-1.54V7.97l-2.27-3.24" font-size="8.26" font-weight="700" fill="#fff" font-family="Bitstream Vera Sans"/></svg>